<svg xmlns="http://www.w3.org/2000/svg" width="48.712" height="59.838" viewBox="0 0 48.712 59.838">
  <g id="Grupo_69" data-name="Grupo 69" transform="translate(-540 -149.665)">
    <path id="Trazado_25" data-name="Trazado 25" d="M553,172h33.326a1.026,1.026,0,0,1,.982,1.327L582.2,190.056a2.054,2.054,0,0,1-1.964,1.454H556.081" transform="translate(0.349 0.564)" fill="none" stroke="#1a1a1a" stroke-miterlimit="10" stroke-width="2"/>
    <path id="Trazado_26" data-name="Trazado 26" d="M582.1,198.805h-22.09a2.054,2.054,0,0,1-1.967-1.463l-8.363-27.879A2.054,2.054,0,0,0,547.714,168H540" transform="translate(0 0.456)" fill="none" stroke="#1a1a1a" stroke-miterlimit="10" stroke-width="2"/>
    <circle id="Elipse_1" data-name="Elipse 1" cx="3.088" cy="3.088" r="3.088" transform="translate(555.388 202.327)" fill="none" stroke="#1a1a1a" stroke-miterlimit="10" stroke-width="2"/>
    <circle id="Elipse_2" data-name="Elipse 2" cx="3.088" cy="3.088" r="3.088" transform="translate(575.939 202.327)" fill="none" stroke="#1a1a1a" stroke-miterlimit="10" stroke-width="2"/>
    <path id="Trazado_27" data-name="Trazado 27" d="M558.933,172.564,553,159.215,570.456,151l9.883,21.564" transform="translate(0.349 0)" fill="none" stroke="#1a1a1a" stroke-miterlimit="10" stroke-width="2"/>
    <g id="Grupo_56" data-name="Grupo 56" transform="translate(560.488 157.365)">
      <path id="Trazado_28" data-name="Trazado 28" d="M559.953,160.93a2.656,2.656,0,0,1,2.269-2.881,2.42,2.42,0,0,1,2.573,1.427l3.934,6.673" transform="translate(-559.952 -157.177)" fill="none" stroke="#1a1a1a" stroke-miterlimit="10" stroke-width="2"/>
      <path id="Trazado_29" data-name="Trazado 29" d="M560.154,160.384c.743,1,1.11,2.7,1.963,3.312.928.662,1.532,1.214,2.245.889a2.08,2.08,0,0,0,.947-.857" transform="translate(-559.947 -157.113)" fill="none" stroke="#1a1a1a" stroke-miterlimit="10" stroke-width="2"/>
      <path id="Trazado_30" data-name="Trazado 30" d="M562.885,160.87a.975.975,0,0,1,.6-.319" transform="translate(-559.874 -157.109)" fill="none" stroke="#1a1a1a" stroke-miterlimit="10" stroke-width="2"/>
      <path id="Trazado_31" data-name="Trazado 31" d="M561.072,161.7a2.1,2.1,0,0,1,.881-.446" transform="translate(-559.922 -157.09)" fill="none" stroke="#1a1a1a" stroke-miterlimit="10" stroke-width="2"/>
      <path id="Trazado_32" data-name="Trazado 32" d="M562.016,161.444a8.356,8.356,0,0,1,.33,1.332l.8-.364" transform="translate(-559.897 -157.085)" fill="none" stroke="#1a1a1a" stroke-miterlimit="10" stroke-width="2"/>
      <path id="Trazado_33" data-name="Trazado 33" d="M564.045,164.771l.54,1.187a3.787,3.787,0,0,0-1.831,1.743c.451.989.5,2.068,4.709.388" transform="translate(-559.877 -156.995)" fill="none" stroke="#1a1a1a" stroke-miterlimit="10" stroke-width="2"/>
      <path id="Trazado_34" data-name="Trazado 34" d="M569.769,164.558c-2.349,2.238-2.943,5.483-3.054,7.636" transform="translate(-559.771 -157.001)" fill="none" stroke="#1a1a1a" stroke-miterlimit="10" stroke-width="2"/>
      <path id="Trazado_35" data-name="Trazado 35" d="M571.16,166.828c-1.068,1.523-.726,3.621-.143,5.311" transform="translate(-559.67 -156.94)" fill="none" stroke="#1a1a1a" stroke-miterlimit="10" stroke-width="2"/>
      <path id="Trazado_36" data-name="Trazado 36" d="M569.177,168.1a10.181,10.181,0,0,0-.558,4" transform="translate(-559.72 -156.906)" fill="none" stroke="#1a1a1a" stroke-miterlimit="10" stroke-width="2"/>
      <path id="Trazado_37" data-name="Trazado 37" d="M563.126,170.852a4.249,4.249,0,0,0,.355,1.383" transform="translate(-559.867 -156.832)" fill="none" stroke="#1a1a1a" stroke-miterlimit="10" stroke-width="2"/>
      <path id="Trazado_38" data-name="Trazado 38" d="M560.1,162.043" transform="translate(-559.948 -157.069)" fill="none" stroke="#1a1a1a" stroke-miterlimit="10" stroke-width="2"/>
      <path id="Trazado_39" data-name="Trazado 39" d="M561.982,173.033c-.394-1.4-.857-4.044.847-5.129a3.511,3.511,0,0,1-.43-2.1,6.108,6.108,0,0,1-2.383-5.653l.036-.292a3.042,3.042,0,0,1,1.756-2.389h0a3.039,3.039,0,0,1,3.745,1.017l4.231,6.008c2.741.048,5.927,3,8.594,7.8" transform="translate(-559.952 -157.199)" fill="none" stroke="#1a1a1a" stroke-miterlimit="10" stroke-width="2"/>
      <path id="Trazado_40" data-name="Trazado 40" d="M566.078,159.408" transform="translate(-559.788 -157.139)" fill="none" stroke="#1a1a1a" stroke-miterlimit="10" stroke-width="2"/>
    </g>
  </g>
</svg>
